PathFileType	4	(X/Y/Z)	C:/Users/beibeiliu/ov580/test_trc/User1\sequence.36_training_dense_left.trc
DataRate	CameraRate	NumFrames	NumMarkers	Units	OrigDataRate	OrigDataStartFrame	OrigNumFrames
120	120	9	19	mm	120	62	246
Frame#	Time	ThumbCMC			ThumbMCP			ThumbIP			ThumbTip			IndexMCP			IndexPIP			IndexTip			MiddleMCP			MiddlePIP			MiddleTip			RingMCP			RingPIP			RingTip			PinkyMCP			PinkyPIP			PinkyTip			BackHand1			BackHand2			BackHand3	
		X0	Y0	Z0	X1	Y1	Z1	X2	Y2	Z2	X3	Y3	Z3	X4	Y4	Z4	X5	Y5	Z5	X6	Y6	Z6	X7	Y7	Z7	X8	Y8	Z8	X9	Y9	Z9	X10	Y10	Z10	X11	Y11	Z11	X12	Y12	Z12	X13	Y13	Z13	X14	Y14	Z14	X15	Y15	Z15	X16	Y16	Z16	X17	Y17	Z17	X18	Y18	Z18	
61	0.508333	-136.998	22.359	44.2877	-112.865	25.3651	19.5614	-101.473	29.6038	-5.52838	-88.4595	28.7461	-30.0362	-133.502	1.81742	-33.5914	-98.5731	-3.00296	-34.5488	-82.2942	-0.969842	-3.94401	-126.926	-20.0975	-35.815	-93.8812	-20.5637	-24.6409	-91.1489	-14.1332	13.2397	-124.377	-44.9661	-23.7759	-92.69	-36.0644	-10.9589	-97.3789	-30.8656	22.7036	-123.905	-62.851	-10.8054	-99.0197	-48.8752	0.634681	-109.688	-33.8146	26.0209	-168.169	-42.0008	18.2458	-172.542	-37.79	54.5067	-172.916	-1.47902	36.0812	
62	0.516667	-136.756	21.3332	46.2843	-115.57	24.9071	16.2468	-106.561	27.5887	-5.39107	-95.9845	27.1347	-32.3006	-131.48	3.30088	-35.4219	-100.217	-1.61563	-36.1969	-85.6354	-3.47287	-1.07425	-129.537	-20.1966	-34.7206	-93.5404	-18.0567	-25.3578	-88.6364	-17.877	11.996	-124.02	-43.7752	-24.8987	-93.8554	-35.8353	-14.2144	-96.9019	-29.7449	21.6701	-127.601	-61.7204	-11.0515	-100.086	-50.5762	-2.07772	-107.193	-33.9242	27.2335	-170.999	-38.4754	23.4447	-172.91	-34.7694	56.1087	-171.631	-2.95048	35.7429	
63	0.525	-137.778	20.0504	45.7034	-119.003	25.8417	17.4715	-112.878	28.3887	-8.12719	-103.542	27.8432	-33.4264	-133.902	4.15705	-34.7542	-100.06	-1.60882	-34.9779	-86.6672	-1.21833	-2.39949	-129.758	-21.536	-35.5379	-97.0237	-19.4383	-29.1681	-87.4417	-14.1684	9.01411	-129.722	-42.4497	-25.1361	-95.2167	-35.7944	-15.5676	-94.4412	-31.2966	16.9839	-132.717	-59.5261	-11.462	-101.84	-52.2635	-5.92867	-107.13	-31.8661	21.7101	-170.874	-36.8838	22.5206	-175.388	-39.3089	58.8148	-173.737	-1.66851	34.1403	
64	0.533333	-141.259	17.6016	45.0055	-122.004	26.7704	19.6485	-119.448	32.5835	-12.5805	-111.421	30.3309	-33.0575	-134.614	2.18022	-36.3202	-100.987	-1.71486	-35.3358	-87.7685	-0.118391	-7.13782	-132.714	-19.7705	-36.3339	-96.6422	-20.4755	-28.4527	-86.3004	-16.7931	8.20633	-128.638	-45.2223	-27.1858	-96.4668	-38.2841	-18.6159	-93.4738	-29.295	14.6918	-131.797	-58.9376	-11.7655	-102.632	-50.8141	-7.752	-100.944	-35.8274	21.0202	-171.781	-40.3671	23.1771	-173.399	-38.1244	58.2903	-172.301	-3.17614	35.7564	
65	0.541667	-142.234	18.1629	46.0063	-128.459	26.9637	15.2952	-123.314	32.0538	-6.62506	-118.619	35.2906	-32.2157	-140.573	3.06377	-33.6567	-104.459	-3.19059	-35.9985	-87.0415	-1.93436	-5.02871	-134.049	-20.6452	-35.7902	-98.5935	-23.1679	-29.3558	-85.4705	-20.6842	3.74513	-129.466	-41.1828	-26.4851	-96.6183	-36.9276	-17.8203	-91.7633	-31.597	13.7398	-129.533	-59.7088	-12.2811	-102.128	-53.9385	-7.12354	-102.109	-31.2812	18.2442	-170.963	-41.2877	26.3801	-175.744	-41.6127	57.2641	-175.064	-7.16589	38.0252	
66	0.55	-143.408	20.0582	46.1824	-130.818	30.4205	19.4095	-129.727	34.7605	-8.34859	-124.455	41.224	-31.9996	-142.456	2.71877	-33.4012	-107.635	-2.36972	-39.0678	-88.0496	-1.0416	-9.23662	-134.969	-24.6049	-35.8399	-102.607	-20.5044	-34.4817	-85.8383	-18.032	4.34302	-129.885	-44.3037	-25.6602	-96.5909	-41.2122	-19.2495	-89.4449	-30.9956	9.40137	-133.287	-63.6817	-9.34018	-104.67	-52.6691	-8.65294	-97.7319	-36.797	18.8459	-172.559	-41.3878	27.1765	-173.432	-41.1773	58.5536	-175.986	-6.63999	39.0089	
67	0.558333	-145.706	21.4225	46.195	-133.595	30.2988	19.6766	-134.722	37.7492	-8.91787	-131.595	39.4998	-32.385	-142.532	-1.9826	-33.5745	-109.9	-3.81578	-39.7813	-88.0081	-2.14553	-12.7487	-136.579	-26.7347	-33.6113	-101.019	-24.0154	-32.1152	-84.7982	-20.5693	1.077	-130.872	-45.9632	-24.7495	-96.2318	-39.5567	-17.5518	-89.5356	-29.9701	11.4708	-128.564	-64.403	-10.0308	-101.524	-53.3821	-6.11503	-100.255	-33.6657	20.2649	-173.197	-43.5897	27.2807	-172.734	-39.7547	58.4554	-175.261	-7.27647	38.2974	
68	0.566667	-145.224	21.3896	47.4607	-135.93	31.9771	19.4767	-138.019	34.7696	-5.56061	-135.768	43.4434	-29.6277	-139.888	-1.85209	-35.5415	-105.323	-5.95011	-39.1861	-88.2162	-7.24076	-11.4036	-136.423	-28.4576	-34.6839	-102.724	-27.2551	-33.5659	-82.9467	-18.9889	-2.19692	-132.325	-45.9591	-23.9386	-97.1886	-41.0615	-18.9983	-87.0951	-34.1382	9.83569	-129.179	-67.725	-8.1638	-102.075	-53.1144	-7.20098	-98.5194	-32.4242	15.8655	-171.7	-43.6256	24.3391	-174.624	-42.3766	60.337	-173.861	-9.36411	37.1454	
69	0.575	-145.006	17.5059	48.4416	-139.675	28.9125	17.5886	-143.07	35.6516	-7.78715	-140.761	44.7451	-27.2781	-139.117	-0.168488	-36.5439	-105.419	-6.99158	-38.8437	-87.9995	-7.18362	-11.3239	-132.643	-30.2428	-35.1484	-101.173	-28.8979	-33.6592	-81.2296	-19.6125	0.389463	-129.171	-50.6591	-22.6298	-96.705	-45.0665	-19.4661	-86.7056	-31.3164	9.32012	-127.774	-68.0379	-8.46562	-101.814	-53.778	-7.44047	-93.8248	-35.089	14.9292	-172.075	-45.8719	28.5233	-172.688	-42.2978	64.3512	-173.67	-9.45851	38.0207	
